<?xml version="1.0" standalone="no"?>
<!DOCTYPE svg PUBLIC "-//W3C//DTD SVG 20010904//EN"
 "http://www.w3.org/TR/2001/REC-SVG-20010904/DTD/svg10.dtd">
<svg version="1.0" xmlns="http://www.w3.org/2000/svg"
 width="944.000000pt" height="944.000000pt" viewBox="0 0 944.000000 944.000000"
 preserveAspectRatio="xMidYMid meet">
<metadata>
Created by potrace 1.14, written by Peter Selinger 2001-2017
</metadata>
<g transform="translate(0.000000,944.000000) scale(0.100000,-0.100000)"
fill="#000000" stroke="none">
<path d="M320 8439 c-14 -5 -34 -24 -45 -42 -21 -32 -21 -40 -19 -1282 1 -687
2 -1259 3 -1271 0 -12 10 -31 21 -43 21 -25 93 -55 98 -41 2 5 16 5 32 0 16
-4 31 -6 34 -3 7 7 96 10 96 3 0 -6 89 -2 107 4 7 3 15 1 18 -4 3 -6 15 -6 30
0 15 6 27 6 30 0 4 -7 13 -7 24 0 10 5 21 7 24 4 7 -8 147 -11 147 -4 0 5 33
4 123 -3 20 -1 37 0 37 3 0 3 18 5 40 5 22 0 40 -3 40 -6 0 -10 62 6 87 21 43
27 45 45 45 450 l0 386 160 -1 161 0 28 -60 c53 -113 99 -216 99 -221 0 -3 13
-33 29 -67 54 -116 78 -172 92 -209 7 -21 17 -38 21 -38 4 0 8 -9 8 -20 0 -11
4 -20 8 -20 5 0 9 -6 9 -12 0 -28 63 -146 88 -166 32 -25 91 -46 110 -38 8 3
17 1 20 -4 3 -5 18 -5 35 0 19 5 30 5 30 -1 0 -6 4 -8 8 -5 10 6 73 8 125 4
20 -2 37 -1 37 2 0 3 18 5 40 5 22 0 40 -3 40 -7 0 -4 13 -3 30 2 16 5 30 5
30 1 0 -4 27 -4 60 -1 33 3 60 3 60 -1 0 -4 14 -4 30 1 17 5 30 5 30 0 0 -5
13 -5 30 0 17 5 30 6 30 2 0 -4 14 -7 30 -7 17 0 30 3 30 7 0 4 10 4 23 -1 12
-4 33 -5 47 -1 14 4 35 3 46 -1 12 -4 25 -5 28 -2 3 4 21 6 38 5 37 -1 59 12
76 45 18 33 15 53 -23 123 -19 36 -45 85 -57 110 -12 25 -24 47 -27 50 -3 3
-18 29 -34 59 -34 67 -131 249 -167 316 -15 28 -46 86 -70 130 -24 44 -53 99
-66 122 l-23 42 65 46 c88 63 204 183 204 212 0 6 4 13 8 15 4 2 22 33 39 69
94 195 112 469 47 699 -21 74 -90 211 -125 249 -15 17 -26 31 -24 31 2 0 -13
18 -33 41 -107 119 -313 233 -502 277 -25 6 -58 14 -75 18 -16 4 -37 9 -45 11
-58 13 -231 16 -970 18 -487 2 -845 -1 -860 -6z m1525 -721 c61 -32 97 -97
101 -182 3 -96 -28 -160 -92 -191 -32 -15 -72 -18 -292 -19 -139 0 -258 1
-262 4 -5 3 -8 93 -8 200 1 152 4 196 14 200 7 3 125 5 261 4 204 -1 253 -4
278 -16z"/>
<path d="M3556 8425 c-15 -13 -30 -36 -35 -52 -13 -49 -8 -2535 6 -2559 19
-32 38 -45 77 -48 20 -2 39 -6 42 -9 3 -3 17 -2 30 3 14 6 24 6 24 0 0 -5 12
-5 28 0 16 4 36 4 45 -1 10 -6 18 -5 22 1 4 6 11 7 17 4 12 -7 148 -11 148 -4
0 3 23 5 50 5 28 0 50 -2 50 -5 0 -6 89 -2 107 4 7 3 15 1 18 -4 3 -6 15 -6
30 0 15 6 27 6 30 0 4 -7 13 -7 24 0 10 5 21 7 24 4 7 -8 147 -11 147 -4 0 5
33 4 123 -3 20 -1 37 1 37 6 0 4 4 6 9 3 9 -6 116 -10 136 -6 6 1 15 1 20 0
23 -4 155 -5 155 0 0 3 23 5 50 5 28 0 50 -2 50 -5 0 -6 89 -2 107 4 7 3 15 1
18 -4 3 -6 15 -6 30 0 15 6 27 6 30 0 4 -7 13 -7 24 0 10 5 21 7 24 4 7 -8
147 -11 147 -4 0 5 33 4 123 -3 20 -1 37 0 37 3 0 3 18 5 40 5 22 0 40 -3 40
-7 0 -4 14 -3 30 2 17 5 30 6 30 2 0 -8 83 -7 105 2 8 3 15 2 15 -2 0 -8 85
-6 98 2 4 2 14 1 22 -4 7 -4 24 -4 37 1 14 5 23 5 23 -1 0 -5 6 -7 13 -5 6 2
28 6 47 9 24 3 44 16 63 38 l28 33 -3 307 -3 308 -28 27 -27 28 -788 2 -787 2
-1 121 -2 120 647 1 c355 0 655 2 666 4 11 2 32 17 47 34 l26 29 -1 290 -2
290 -28 26 c-15 14 -33 27 -40 28 -7 1 -298 2 -647 4 -349 1 -643 3 -652 3
-15 1 -17 14 -16 120 l2 120 230 0 c127 0 233 1 236 2 3 1 10 0 15 -1 12 -3
206 -2 220 0 6 2 14 2 19 1 12 -3 529 -3 541 0 6 1 15 0 20 -1 28 -7 222 1
249 10 64 21 67 35 66 370 l-1 301 -29 32 -28 32 -1234 2 -1235 2 -27 -24z"/>
<path d="M6833 8433 c-17 -8 -37 -28 -44 -46 -19 -45 -21 -2506 -2 -2555 17
-46 37 -62 78 -66 20 -2 38 -6 41 -9 3 -3 18 -2 33 3 16 4 33 5 40 1 6 -4 36
-4 66 -1 30 3 55 3 55 -1 0 -4 14 -4 30 1 17 5 30 5 30 0 0 -5 13 -5 30 0 17
5 30 6 30 2 0 -4 14 -7 30 -7 17 0 30 3 30 7 0 4 9 4 21 0 12 -5 43 -5 70 -2
27 4 49 3 49 -1 0 -4 14 -4 30 1 17 5 30 5 30 0 0 -5 13 -5 30 0 17 5 30 6 30
2 0 -4 14 -7 30 -7 17 0 30 3 30 7 0 4 11 3 24 -2 13 -5 26 -7 28 -5 5 5 64 7
111 3 20 -2 37 0 37 5 0 4 4 6 9 3 9 -6 116 -10 136 -6 6 1 15 1 20 0 23 -4
155 -5 155 0 0 3 23 5 50 5 28 0 50 -2 50 -5 0 -6 89 -2 107 4 7 3 15 1 18 -4
3 -6 15 -6 30 0 15 6 27 6 30 0 4 -7 13 -7 24 0 10 5 21 7 24 4 7 -8 147 -11
147 -4 0 5 33 4 123 -3 20 -1 37 0 37 3 0 3 18 5 40 5 22 0 40 -3 40 -7 0 -4
14 -3 30 2 19 5 30 5 30 -1 0 -6 4 -8 8 -5 10 6 83 8 135 4 20 -2 37 0 37 5 0
4 4 6 10 2 5 -3 37 -6 72 -5 78 0 99 0 118 -1 53 -2 103 22 119 58 7 15 11
132 11 324 l0 301 -34 34 -33 33 -724 0 c-398 1 -751 1 -784 1 l-61 0 1 114
c0 63 3 117 6 120 3 3 301 6 661 6 l656 1 31 35 c26 29 31 43 31 87 1 69 1
454 0 491 0 19 -11 39 -34 61 l-34 32 -654 1 c-359 0 -655 1 -658 1 -4 1 -5
171 -1 223 1 15 20 17 194 17 105 0 197 1 202 2 6 1 15 0 20 -1 12 -3 206 -2
220 0 6 2 14 2 20 0 5 -1 199 -2 431 -2 357 0 426 2 450 15 55 28 57 40 57
356 0 317 -2 336 -56 364 -29 15 -128 16 -1243 16 -1055 -1 -1214 -3 -1241
-16z"/>
<path d="M84 3643 c-23 -4 -54 -51 -54 -82 0 -11 4 -30 9 -43 5 -13 21 -57 36
-98 15 -41 33 -91 40 -110 7 -19 25 -69 40 -110 15 -41 35 -97 45 -125 10 -27
33 -90 50 -140 18 -49 38 -106 45 -125 18 -47 80 -219 111 -305 14 -38 34 -92
44 -120 10 -27 48 -132 84 -233 36 -100 96 -264 132 -365 36 -100 77 -213 92
-252 14 -38 27 -74 29 -80 5 -21 48 -140 54 -150 4 -5 16 -41 29 -80 12 -38
25 -74 30 -80 4 -5 11 -24 15 -42 3 -17 19 -50 35 -71 53 -74 34 -72 587 -72
534 0 535 1 580 54 21 24 73 138 73 159 0 5 6 23 14 40 8 18 26 66 41 107 14
41 28 82 32 90 3 8 7 20 9 25 1 6 26 73 54 150 28 77 53 147 55 155 5 19 103
288 115 315 5 11 16 42 25 69 9 27 31 90 49 140 19 50 62 168 95 261 34 94 64
177 68 185 3 8 7 21 9 27 1 7 14 46 29 85 15 40 36 98 47 128 11 30 24 64 28
75 18 46 91 251 95 268 2 9 7 22 10 27 3 5 8 19 10 30 2 10 10 34 18 52 25 55
56 152 55 170 -1 9 -11 29 -24 45 l-22 28 -459 0 -458 0 -37 -28 c-31 -24 -67
-79 -74 -112 -1 -5 -16 -57 -34 -115 -17 -58 -36 -121 -42 -140 -5 -19 -39
-132 -75 -250 -36 -118 -67 -222 -68 -230 -2 -8 -4 -16 -5 -17 -2 -2 -3 -6 -4
-10 -1 -5 -10 -35 -21 -68 -10 -33 -19 -64 -21 -70 -1 -5 -36 -123 -78 -262
-42 -138 -76 -259 -76 -268 0 -31 -17 -5 -35 52 -9 32 -28 94 -42 138 -14 44
-26 87 -28 95 -4 16 -27 93 -69 230 -15 47 -28 92 -30 100 -2 8 -21 69 -41
135 -20 66 -37 125 -39 130 -1 6 -10 35 -19 65 -26 85 -127 424 -148 496 -5
18 -24 48 -42 67 -62 67 -47 65 -522 64 -237 0 -439 -2 -451 -4z"/>
<path d="M4201 3632 c-61 -30 -85 -75 -165 -312 -41 -124 -98 -290 -126 -370
-28 -80 -52 -149 -54 -155 -16 -61 -63 -192 -71 -197 -5 -4 -7 -8 -3 -8 5 0
-33 -122 -69 -220 -15 -42 -103 -297 -107 -310 -6 -22 -184 -545 -207 -610
-11 -30 -22 -62 -24 -70 -2 -8 -4 -15 -5 -15 -1 0 -3 -7 -5 -15 -2 -8 -24 -73
-49 -145 -59 -170 -60 -178 -30 -215 l25 -29 390 -1 c407 0 444 3 489 43 27
23 71 108 86 162 11 43 63 178 71 186 6 6 23 10 39 9 16 0 65 0 109 0 44 0 86
1 93 0 15 0 38 0 55 0 6 0 38 -1 70 -2 31 -2 57 1 57 5 0 5 5 5 12 1 7 -4 35
-7 62 -5 28 1 57 2 64 1 14 0 36 0 55 0 6 0 38 -1 70 -2 31 -2 57 1 57 5 0 5
5 5 12 1 7 -4 35 -7 62 -5 123 5 111 16 174 -158 61 -170 97 -222 162 -234 18
-4 207 -7 419 -7 375 0 388 1 409 20 22 21 34 54 29 80 -4 21 -27 91 -37 115
-12 28 -23 58 -25 70 -2 6 -33 98 -69 205 -37 107 -81 236 -97 285 -17 50 -33
97 -36 105 -3 8 -7 20 -9 25 -1 6 -33 100 -71 210 -38 110 -70 203 -71 207 -2
4 -5 13 -7 20 -3 7 -45 132 -95 278 -49 146 -93 272 -97 280 -3 8 -8 24 -10
35 -1 11 -7 29 -12 40 -5 11 -19 49 -31 85 -12 36 -24 72 -27 80 -4 8 -7 18
-8 23 -2 4 -4 9 -5 12 -1 3 -3 8 -4 13 -4 16 -58 178 -66 197 -5 11 -23 63
-41 115 -17 52 -35 97 -40 98 -5 2 -9 8 -9 13 0 15 -41 52 -71 66 -19 8 -185
11 -605 11 -519 0 -583 -2 -613 -16z m650 -837 c18 -55 34 -102 35 -105 0 -3
6 -18 13 -34 6 -16 13 -36 15 -45 3 -15 6 -25 23 -68 3 -10 7 -20 8 -23 0 -3
12 -36 25 -75 13 -38 25 -72 25 -75 1 -3 4 -12 8 -20 3 -8 15 -44 27 -80 12
-36 24 -72 27 -80 3 -8 7 -19 9 -25 17 -57 18 -55 -12 -56 -138 -3 -506 0
-511 5 -3 3 -1 11 5 18 6 7 10 16 10 21 1 10 63 199 71 212 3 6 6 15 7 20 2
11 121 362 131 385 3 8 7 21 9 27 4 20 37 104 39 101 1 -2 18 -48 36 -103z"/>
<path d="M6795 3637 c-29 -16 -44 -32 -53 -59 -5 -13 -8 -590 -7 -1283 1
-1220 1 -1261 20 -1288 10 -16 30 -33 43 -38 14 -5 194 -9 408 -9 382 1 384 1
407 23 13 12 28 31 34 42 6 12 9 215 8 540 -1 286 1 524 3 528 2 4 33 -29 69
-75 35 -46 79 -101 96 -122 18 -21 34 -43 36 -48 1 -5 13 -19 25 -32 39 -41
66 -76 66 -86 0 -5 9 -15 20 -22 11 -7 20 -18 20 -25 0 -6 3 -13 8 -15 4 -1
26 -28 49 -58 23 -30 51 -65 62 -77 12 -12 21 -25 21 -28 0 -3 32 -44 70 -93
39 -48 74 -91 78 -97 27 -36 79 -101 87 -111 6 -6 21 -26 35 -44 14 -18 30
-38 35 -44 6 -6 26 -32 45 -57 19 -26 50 -58 69 -70 34 -24 35 -24 390 -27
l356 -3 35 29 35 30 2 1281 2 1282 -34 33 -34 34 -382 0 c-211 0 -394 -4 -408
-10 -14 -5 -34 -20 -45 -34 -17 -24 -18 -56 -19 -600 0 -316 -3 -574 -6 -574
-3 0 -17 17 -31 38 -14 20 -29 42 -35 48 -5 7 -29 38 -52 70 -23 33 -99 139
-170 236 -70 97 -135 186 -143 198 -21 31 -66 92 -82 111 -7 9 -17 23 -23 32
-5 8 -48 68 -95 132 -47 65 -89 124 -95 134 -5 9 -12 18 -15 21 -3 3 -23 30
-44 60 -56 79 -111 127 -154 133 -70 11 -687 6 -707 -6z"/>
</g>
</svg>
