<svg xmlns="http://www.w3.org/2000/svg" width="628" height="489" fill="none" viewBox="0 0 628 489">
  
  <style>
    .item:hover{
      transform:translateY(-10px);
    }
  </style>
  
  <g filter="url(#a)">
    <circle cx="311.5" cy="138.5" r="73.5" fill="#D38484"/>
    <circle cx="311.5" cy="138.5" r="73" stroke="#000"/>
  </g>
  <path fill="url(#b)" class = "item" fill-rule="evenodd" d="M287.25 129.333C290.483 116.445 298.567 110 311.5 110c19.4 0 21.825 14.5 31.525 16.917 6.467 1.611 12.125-.805 16.975-7.25C356.767 132.555 348.683 139 335.75 139c-19.4 0-21.825-14.5-31.525-16.917-6.467-1.611-12.125.805-16.975 7.25Zm-24.25 29C266.233 145.445 274.317 139 287.25 139c19.4 0 21.825 14.5 31.525 16.917 6.467 1.611 12.125-.805 16.975-7.25C332.517 161.555 324.433 168 311.5 168c-19.4 0-21.825-14.5-31.525-16.917-6.467-1.611-12.125.805-16.975 7.25Z" clip-rule="evenodd"/>
  <g filter="url(#c)">
    <circle cx="330" cy="415" r="70" fill="#D38484"/>
    <circle cx="330" cy="415" r="69.5" stroke="#000"/>
  </g>
  <path fill="#F0DB4F" d="M299 386.453 359.094 385l1.436 59.384-60.094 1.454L299 386.453Z"/>
  <path fill="#323330" d="M347.24 432.676c-.452-2.602-2.089-4.757-6.827-6.689-1.648-.766-3.478-1.299-4.051-2.613-.211-.768-.247-1.203-.137-1.674.313-1.526 1.985-2.04 3.331-1.637.868.289 1.699.982 2.217 2.107 2.258-1.655 2.253-1.644 3.83-2.782-.61-.965-.935-1.409-1.33-1.818-1.42-1.627-3.323-2.435-6.331-2.297-.519.083-1.043.172-1.562.255-1.493.445-2.904 1.328-3.716 2.486-2.444 3.135-1.596 8.498 1.523 10.639 3.078 2.364 7.528 2.812 8.149 5.078.619 2.778-1.817 3.741-4.268 3.479-1.81-.359-2.836-1.32-3.961-3.084-1.963 1.289-1.963 1.289-3.981 2.606.513 1.131 1.037 1.636 1.875 2.606 3.956 4.113 13.596 3.673 15.172-2.735.066-.219.496-1.689.067-3.927Zm-20.346-16.799-4.977.121c.112 4.625.203 9.217.314 13.842.072 2.944.278 5.639-.147 6.477-.689 1.644-2.58 1.489-3.448 1.194-.886-.441-1.347-1.089-1.885-2.007-.148-.263-.26-.467-.295-.483-1.329.92-2.653 1.845-3.982 2.764.708 1.469 1.731 2.735 3.021 3.542 1.926 1.178 4.484 1.492 7.134.769 1.722-.586 3.192-1.748 3.934-3.481 1.079-2.275.77-4.989.687-7.998-.093-4.908-.237-9.815-.356-14.74Z"/>
  <g filter="url(#d)">
    <circle cx="453" cy="299" r="70" fill="#D38484"/>
    <circle cx="453" cy="299" r="69.5" stroke="#000"/>
  </g>
  <path fill="#264DE4" d="m487.7 260-6.259 70.114-28.133 7.799-28.056-7.788L419 260h68.7Z"/>
  <path fill="#2965F1" d="m453.35 331.951 22.733-6.302 5.348-59.915H453.35v66.217Z"/>
  <path fill="#EBEBEB" d="M453.35 291.742h-20.017l.771 8.6h19.246v-8.6Zm0-17.408h-21.566l.782 8.601h20.784v-8.601Zm-18.862 30.309 1.205 13.504 17.617 4.89.04-.01v-8.949l-.038.01-9.578-2.586-.613-6.859h-8.633Z"/>
  <path fill="#fff" d="m463.911 300.342-.999 11.155-9.592 2.589v8.947l17.632-4.886.129-1.453 2.021-22.643.21-2.309 1.553-17.408H453.32v8.601h12.119l-.782 8.807H453.32v8.6h10.591Z"/>
  <g filter="url(#e)">
    <ellipse cx="511.5" cy="114" fill="#CFA5B4" rx="114.5" ry="114"/>
    <path stroke="#000" d="M625.5 114c0 62.682-51.037 113.5-114 113.5s-114-50.818-114-113.5S448.537.5 511.5.5s114 50.818 114 113.5Z"/>
  </g>
  <g clip-path="url(#f)">
    <path fill="#FFA000" d="m524.283 97.981-11.31 11.082-10.495-22.294 5.431-12.822c1.412-2.603 3.616-2.573 4.993 0l11.381 24.034Z"/>
    <path fill="#F57F17" d="m502.478 86.77 10.495 22.293-42.27 41.408 31.775-63.702Z"/>
    <path fill="#FFCA28" d="M536.653 81.042c2.02-2.045 4.11-1.346 4.644 1.551l11.003 67.328-36.471 23.056c-1.271.744-4.661 1.064-4.661 1.064s-3.086-.387-4.262-1.116l-36.203-22.454 65.95-69.429Z"/>
    <path fill="#FFA000" d="m502.478 86.77-31.771 63.701 14.15-93.098c.522-2.901 2.09-3.18 3.489-.621l14.132 30.017Z"/>
  </g>
  <g filter="url(#g)">
    <circle cx="85" cy="401" r="70" fill="#CFA5B4"/>
    <circle cx="85" cy="401" r="69.5" stroke="#000"/>
  </g>
  <path fill="#F03C2E" d="m114.794 402.149-27.942-27.942A4.128 4.128 0 0 0 83.938 373a4.123 4.123 0 0 0-2.914 1.207l-5.8 5.8 7.36 7.36a4.848 4.848 0 0 1 5.036 1.174 4.904 4.904 0 0 1 1.162 5.066l7.094 7.094a4.89 4.89 0 0 1 5.066 1.164 4.916 4.916 0 0 1 1.437 3.469 4.896 4.896 0 0 1-1.438 3.468 4.9 4.9 0 0 1-6.937-.001 4.911 4.911 0 0 1-1.068-5.334l-6.616-6.616v17.41c.48.238.92.551 1.3.928a4.914 4.914 0 0 1 1.437 3.468 4.901 4.901 0 0 1-3.028 4.532 4.913 4.913 0 0 1-3.753 0 4.907 4.907 0 0 1-1.592-8c.474-.472 1-.83 1.606-1.07v-17.572a4.87 4.87 0 0 1-1.606-1.07 4.897 4.897 0 0 1-1.056-5.362l-7.26-7.256-19.16 19.14a4.117 4.117 0 0 0-.894 4.493c.207.5.511.955.894 1.337l27.944 27.94a4.115 4.115 0 0 0 4.492.894c.5-.207.954-.511 1.336-.894l27.814-27.77a4.112 4.112 0 0 0 .895-4.492 4.116 4.116 0 0 0-.895-1.338"/>
  <g filter="url(#h)">
    <circle cx="109.5" cy="123.5" r="109.5" fill="#CFA5B4"/>
    <circle cx="109.5" cy="123.5" r="109" stroke="#000"/>
  </g>
  <path fill="#39CEFD" d="m78.07 150.012 22.032 22.32 60.62-61.387h-44.079l-38.574 39.067ZM116.643 44h44.079l-93.676 94.853L45 116.533 116.643 44Z"/>
  <path fill="#03569B" d="m100.102 172.332 16.541 16.733h44.079l-38.574-39.052-22.046 22.319Z"/>
  <path fill="url(#i)" d="m132.798 160.865-10.65-10.852-22.046 22.319 32.696-11.467Z"/>
  <path fill="#16B9FD" d="m78.067 150.005 22.046-22.321 22.048 22.321-22.048 22.32-22.046-22.32Z"/>
  <path fill="url(#j)" d="m160.722 110.946-38.574 39.066 38.574 39.067h-44.079l-38.588-39.067 38.588-39.066h44.079ZM116.643 44 45 116.533l22.046 22.319L160.722 44h-44.079Z"/>
  <g filter="url(#k)">
    <circle cx="225" cy="290" r="70" fill="#CFA5B4"/>
    <circle cx="225" cy="290" r="69.5" stroke="#000"/>
  </g>
  <path fill="#E44D26" d="m202.756 318.004-5.617-63.002h61.722l-5.622 62.994L227.961 325l-25.205-6.996Z"/>
  <path fill="#F16529" d="m248.425 313.984 4.806-53.83H228v59.493l20.425-5.663Z"/>
  <path fill="#EBEBEB" d="M227.974 267.88h-19.351l2.085 23.367H228v-7.726h-10.224l-.707-7.913H228v-7.728h-.026Zm.026 35.683-.033.008-8.605-2.323-.547-6.162h-7.762l1.083 12.132 15.829 4.375.035-.011v-8.019Z"/>
  <path fill="#fff" d="M227.974 291.247h9.515l-.875 10.019-8.618 2.325v8.039l15.841-4.39 2.122-23.724H228l-.026 7.731Zm19.171-21.293.184-2.074h-19.36v7.726h18.664l.153-1.737.359-3.915Z"/>
  <g filter="url(#l)">
    <circle cx="61" cy="282" r="39" fill="#D38484"/>
    <circle cx="61" cy="282" r="38.5" stroke="#000"/>
  </g>
  <path fill="#00678C" class = "item" fill-rule="evenodd" d="M80.765 292.938c-2.23-.062-3.96.167-5.41.777-.418.167-1.088.167-1.143.693.223.22.25.581.445.887.335.554.921 1.301 1.45 1.689l1.785 1.275c1.088.664 2.315 1.053 3.374 1.718.614.388 1.228.887 1.841 1.303.313.221.502.582.893.72v-.084c-.195-.248-.251-.608-.446-.887l-.837-.803c-.808-1.08-1.813-2.023-2.9-2.798-.893-.61-2.845-1.441-3.207-2.466l-.055-.062c.612-.062 1.337-.277 1.924-.444.948-.248 1.812-.194 2.787-.443l1.34-.388v-.248c-.502-.499-.864-1.164-1.394-1.635-1.422-1.219-2.985-2.411-4.602-3.408-.865-.554-1.98-.915-2.9-1.385-.336-.166-.893-.25-1.088-.526-.504-.609-.782-1.413-1.144-2.134l-2.287-4.821c-.502-1.081-.81-2.162-1.422-3.159-2.873-4.711-5.997-7.564-10.794-10.363-1.031-.582-2.258-.833-3.563-1.137l-2.091-.112c-.447-.193-.893-.72-1.283-.97-1.59-.997-5.69-3.158-6.862-.31-.753 1.801 1.116 3.574 1.75 4.489.475.637 1.088 1.357 1.423 2.078.188.47.25.97.446 1.468.446 1.219.865 2.578 1.45 3.714.313.582.641 1.193 1.032 1.719.223.31.614.443.697.942-.39.554-.418 1.385-.64 2.078-1.005 3.132-.615 7.011.807 9.316.447.692 1.5 2.217 2.93 1.634 1.255-.498.974-2.078 1.337-3.463.084-.332.028-.554.195-.776v.062l1.144 2.299c.864 1.358 2.37 2.772 3.626 3.714.668.499 1.198 1.358 2.035 1.663v-.084h-.055c-.168-.248-.42-.36-.642-.554-.502-.499-1.06-1.109-1.45-1.663-1.171-1.551-2.203-3.269-3.123-5.042-.447-.859-.838-1.801-1.2-2.66-.168-.333-.168-.832-.446-.998-.419.609-1.031 1.137-1.34 1.885-.53 1.191-.585 2.659-.78 4.184-.112.027-.062 0-.112.062-.892-.221-1.2-1.137-1.534-1.912-.836-1.967-.976-5.126-.25-7.398.194-.582 1.032-2.411.697-2.965-.169-.527-.725-.831-1.032-1.247a11.184 11.184 0 0 1-1.004-1.773c-.668-1.553-1.003-3.27-1.729-4.822-.335-.72-.92-1.469-1.395-2.133-.53-.749-1.114-1.275-1.533-2.162-.14-.31-.334-.803-.111-1.136.055-.222.167-.311.39-.36.362-.311 1.394.083 1.757.248 1.031.416 1.896.804 2.76 1.385.39.277.81.804 1.312.943h.586c.892.194 1.896.062 2.732.31 1.478.472 2.816 1.164 4.016 1.913a24.643 24.643 0 0 1 8.701 9.477c.335.637.474 1.219.782 1.884.586 1.359 1.311 2.744 1.896 4.074.586 1.303 1.144 2.634 1.98 3.714.419.582 2.091.886 2.844 1.191.558.249 1.422.472 1.925.777.948.582 1.896 1.247 2.788 1.884.446.332 1.84 1.025 1.924 1.577l.003-.015Zm-28.44-24.078a4.446 4.446 0 0 0-1.144.138v.062h.055c.224.444.614.749.893 1.137l.642 1.33.055-.062c.39-.277.586-.721.586-1.385-.167-.194-.195-.388-.334-.582-.168-.277-.53-.416-.754-.637v-.001Z" clip-rule="evenodd"/>
  <g filter="url(#m)">
    <circle cx="551" cy="415" r="70" fill="#D38484"/>
    <circle cx="551" cy="415" r="69.5" stroke="#000"/>
  </g>
  <path fill="#8CC84B" d="M548.32 383.681c1.6-.906 3.64-.91 5.2 0l23.888 13.466c1.494.84 2.494 2.506 2.48 4.228v27c.01 1.794-1.088 3.496-2.664 4.32l-23.76 13.404a5.21 5.21 0 0 1-2.659.647 5.208 5.208 0 0 1-2.619-.793l-7.13-4.12c-.486-.29-1.032-.52-1.376-.99.304-.408.844-.46 1.284-.64.992-.316 1.9-.8 2.812-1.312.23-.16.512-.1.732.044l6.08 3.516c.434.25.874-.08 1.246-.29l23.33-13.166a.772.772 0 0 0 .424-.76v-26.74a.834.834 0 0 0-.5-.834l-23.7-13.346a.821.821 0 0 0-.93-.002l-23.666 13.374c-.32.146-.54.47-.5.83v26.74a.75.75 0 0 0 .43.75l6.324 3.57c1.188.64 2.646 1 3.954.53a3 3 0 0 0 1.942-2.818l.006-26.58c-.028-.394.344-.72.726-.68h3.04c.4-.01.714.414.66.81l-.006 26.748c.002 2.376-.974 4.96-3.172 6.126-2.708 1.4-6.056 1.106-8.732-.24l-6.8-3.76c-1.6-.8-2.674-2.528-2.664-4.32v-27a4.92 4.92 0 0 1 2.564-4.282l23.756-13.43Zm6.888 18.716c3.454-.2 7.152-.132 10.26 1.57 2.406 1.304 3.74 4.04 3.784 6.716-.068.36-.444.56-.788.534-1-.002-2.004.014-3.008-.006-.426.016-.672-.376-.726-.752-.288-1.28-.986-2.546-2.19-3.164-1.848-.926-3.992-.88-6.008-.86-1.472.08-3.054.206-4.3 1.07-.96.656-1.248 2-.906 3.044.32.766 1.206 1.012 1.928 1.24 4.164 1.088 8.574 1 12.66 2.414 1.69.584 3.344 1.72 3.924 3.49.756 2.372.426 5.208-1.26 7.112-1.368 1.568-3.36 2.4-5.35 2.884-2.646.59-5.39.604-8.076.34-2.526-.288-5.154-.952-7.104-2.672-1.668-1.448-2.48-3.704-2.4-5.88.02-.368.386-.624.74-.594h3c.404-.028.7.32.72.7.186 1.2.644 2.5 1.708 3.2 2.052 1.324 4.626 1.232 6.974 1.27 1.946-.086 4.13-.112 5.72-1.4.84-.734 1.086-1.96.86-3.016-.246-.892-1.2-1.306-2-1.6-4.11-1.3-8.57-.828-12.64-2.3-1.652-.584-3.25-1.688-3.884-3.386-.886-2.4-.48-5.374 1.386-7.214 1.8-1.83 4.44-2.536 6.94-2.788l.036.048Z"/>
  <g filter="url(#n)">
    <circle cx="580" cy="286" r="39" fill="#D38484"/>
    <circle cx="580" cy="286" r="38.5" stroke="#000"/>
  </g>
  <path fill="#00D8FF" d="M579.722 290.301a4.24 4.24 0 1 0 0-8.478 4.24 4.24 0 0 0 0 8.478Z"/>
  <path stroke="#00D8FF" stroke-width="2.734" d="M579.722 277.443c5.691 0 10.978.817 14.965 2.189 4.803 1.654 7.756 4.16 7.756 6.43 0 2.365-3.13 5.028-8.288 6.737-3.899 1.292-9.031 1.966-14.433 1.966-5.539 0-10.784-.633-14.728-1.981-4.989-1.705-7.994-4.402-7.994-6.722 0-2.251 2.82-4.738 7.555-6.389 4.002-1.395 9.419-2.23 15.166-2.23h.001Z" clip-rule="evenodd"/>
  <path stroke="#00D8FF" stroke-width="2.734" d="M572.219 281.777c2.843-4.93 6.192-9.102 9.372-11.87 3.832-3.334 7.479-4.64 9.445-3.507 2.049 1.182 2.792 5.223 1.695 10.545-.828 4.024-2.808 8.806-5.507 13.486-2.767 4.798-5.936 9.026-9.073 11.768-3.969 3.47-7.807 4.726-9.817 3.567-1.95-1.124-2.696-4.81-1.76-9.737.79-4.163 2.774-9.273 5.644-14.252h.001Z" clip-rule="evenodd"/>
  <path stroke="#00D8FF" stroke-width="2.734" d="M572.226 290.443c-2.851-4.924-4.792-9.91-5.603-14.048-.975-4.985-.286-8.796 1.679-9.933 2.047-1.185 5.919.189 9.982 3.797 3.072 2.727 6.226 6.83 8.933 11.506 2.775 4.794 4.855 9.65 5.665 13.737 1.023 5.173.195 9.125-1.813 10.287-1.948 1.128-5.514-.066-9.315-3.338-3.212-2.763-6.648-7.034-9.528-12.008Z" clip-rule="evenodd"/>
  <defs>
    <filter id="a" width="151" height="151" x="238" y="65" color-interpolation-filters="sRGB" filterUnits="userSpaceOnUse">
      <feFlood flood-opacity="0" result="BackgroundImageFix"/>
      <feColorMatrix in="SourceAlpha" result="hardAlpha" values="0 0 0 0 0 0 0 0 0 0 0 0 0 0 0 0 0 0 127 0"/>
      <feOffset dx="4" dy="4"/>
      <feComposite in2="hardAlpha" operator="out"/>
      <feColorMatrix values="0 0 0 0 0.0166667 0 0 0 0 0.0166667 0 0 0 0 0.0166667 0 0 0 1 0"/>
      <feBlend in2="BackgroundImageFix" result="effect1_dropShadow_4_48"/>
      <feBlend in="SourceGraphic" in2="effect1_dropShadow_4_48" result="shape"/>
    </filter>
    <filter id="c" width="144" height="144" x="260" y="345" color-interpolation-filters="sRGB" filterUnits="userSpaceOnUse">
      <feFlood flood-opacity="0" result="BackgroundImageFix"/>
      <feColorMatrix in="SourceAlpha" result="hardAlpha" values="0 0 0 0 0 0 0 0 0 0 0 0 0 0 0 0 0 0 127 0"/>
      <feOffset dx="4" dy="4"/>
      <feComposite in2="hardAlpha" operator="out"/>
      <feColorMatrix values="0 0 0 0 0.0166667 0 0 0 0 0.0166667 0 0 0 0 0.0166667 0 0 0 1 0"/>
      <feBlend in2="BackgroundImageFix" result="effect1_dropShadow_4_48"/>
      <feBlend in="SourceGraphic" in2="effect1_dropShadow_4_48" result="shape"/>
    </filter>
    <filter id="d" width="144" height="144" x="383" y="229" color-interpolation-filters="sRGB" filterUnits="userSpaceOnUse">
      <feFlood flood-opacity="0" result="BackgroundImageFix"/>
      <feColorMatrix in="SourceAlpha" result="hardAlpha" values="0 0 0 0 0 0 0 0 0 0 0 0 0 0 0 0 0 0 127 0"/>
      <feOffset dx="4" dy="4"/>
      <feComposite in2="hardAlpha" operator="out"/>
      <feColorMatrix values="0 0 0 0 0.0166667 0 0 0 0 0.0166667 0 0 0 0 0.0166667 0 0 0 1 0"/>
      <feBlend in2="BackgroundImageFix" result="effect1_dropShadow_4_48"/>
      <feBlend in="SourceGraphic" in2="effect1_dropShadow_4_48" result="shape"/>
    </filter>
    <filter id="e" width="231" height="230" x="397" y="0" color-interpolation-filters="sRGB" filterUnits="userSpaceOnUse">
      <feFlood flood-opacity="0" result="BackgroundImageFix"/>
      <feColorMatrix in="SourceAlpha" result="hardAlpha" values="0 0 0 0 0 0 0 0 0 0 0 0 0 0 0 0 0 0 127 0"/>
      <feOffset dx="2" dy="2"/>
      <feComposite in2="hardAlpha" operator="out"/>
      <feColorMatrix values="0 0 0 0 0.0166667 0 0 0 0 0.0166667 0 0 0 0 0.0166667 0 0 0 1 0"/>
      <feBlend in2="BackgroundImageFix" result="effect1_dropShadow_4_48"/>
      <feBlend in="SourceGraphic" in2="effect1_dropShadow_4_48" result="shape"/>
    </filter>
    <filter id="g" width="144" height="144" x="15" y="331" color-interpolation-filters="sRGB" filterUnits="userSpaceOnUse">
      <feFlood flood-opacity="0" result="BackgroundImageFix"/>
      <feColorMatrix in="SourceAlpha" result="hardAlpha" values="0 0 0 0 0 0 0 0 0 0 0 0 0 0 0 0 0 0 127 0"/>
      <feOffset dx="4" dy="4"/>
      <feComposite in2="hardAlpha" operator="out"/>
      <feColorMatrix values="0 0 0 0 0.0166667 0 0 0 0 0.0166667 0 0 0 0 0.0166667 0 0 0 1 0"/>
      <feBlend in2="BackgroundImageFix" result="effect1_dropShadow_4_48"/>
      <feBlend in="SourceGraphic" in2="effect1_dropShadow_4_48" result="shape"/>
    </filter>
    <filter id="h" width="221" height="221" x="0" y="14" color-interpolation-filters="sRGB" filterUnits="userSpaceOnUse">
      <feFlood flood-opacity="0" result="BackgroundImageFix"/>
      <feColorMatrix in="SourceAlpha" result="hardAlpha" values="0 0 0 0 0 0 0 0 0 0 0 0 0 0 0 0 0 0 127 0"/>
      <feOffset dx="2" dy="2"/>
      <feComposite in2="hardAlpha" operator="out"/>
      <feColorMatrix values="0 0 0 0 0.0166667 0 0 0 0 0.0166667 0 0 0 0 0.0166667 0 0 0 1 0"/>
      <feBlend in2="BackgroundImageFix" result="effect1_dropShadow_4_48"/>
      <feBlend in="SourceGraphic" in2="effect1_dropShadow_4_48" result="shape"/>
    </filter>
    <filter id="k" width="144" height="144" x="155" y="220" color-interpolation-filters="sRGB" filterUnits="userSpaceOnUse">
      <feFlood flood-opacity="0" result="BackgroundImageFix"/>
      <feColorMatrix in="SourceAlpha" result="hardAlpha" values="0 0 0 0 0 0 0 0 0 0 0 0 0 0 0 0 0 0 127 0"/>
      <feOffset dx="4" dy="4"/>
      <feComposite in2="hardAlpha" operator="out"/>
      <feColorMatrix values="0 0 0 0 0.0166667 0 0 0 0 0.0166667 0 0 0 0 0.0166667 0 0 0 1 0"/>
      <feBlend in2="BackgroundImageFix" result="effect1_dropShadow_4_48"/>
      <feBlend in="SourceGraphic" in2="effect1_dropShadow_4_48" result="shape"/>
    </filter>
    <filter id="l" width="82" height="82" x="22" y="243" color-interpolation-filters="sRGB" filterUnits="userSpaceOnUse">
      <feFlood flood-opacity="0" result="BackgroundImageFix"/>
      <feColorMatrix in="SourceAlpha" result="hardAlpha" values="0 0 0 0 0 0 0 0 0 0 0 0 0 0 0 0 0 0 127 0"/>
      <feOffset dx="4" dy="4"/>
      <feComposite in2="hardAlpha" operator="out"/>
      <feColorMatrix values="0 0 0 0 0.0166667 0 0 0 0 0.0166667 0 0 0 0 0.0166667 0 0 0 1 0"/>
      <feBlend in2="BackgroundImageFix" result="effect1_dropShadow_4_48"/>
      <feBlend in="SourceGraphic" in2="effect1_dropShadow_4_48" result="shape"/>
    </filter>
    <filter id="m" width="144" height="144" x="481" y="345" color-interpolation-filters="sRGB" filterUnits="userSpaceOnUse">
      <feFlood flood-opacity="0" result="BackgroundImageFix"/>
      <feColorMatrix in="SourceAlpha" result="hardAlpha" values="0 0 0 0 0 0 0 0 0 0 0 0 0 0 0 0 0 0 127 0"/>
      <feOffset dx="4" dy="4"/>
      <feComposite in2="hardAlpha" operator="out"/>
      <feColorMatrix values="0 0 0 0 0.0166667 0 0 0 0 0.0166667 0 0 0 0 0.0166667 0 0 0 1 0"/>
      <feBlend in2="BackgroundImageFix" result="effect1_dropShadow_4_48"/>
      <feBlend in="SourceGraphic" in2="effect1_dropShadow_4_48" result="shape"/>
    </filter>
    <filter id="n" width="82" height="82" x="541" y="247" color-interpolation-filters="sRGB" filterUnits="userSpaceOnUse">
      <feFlood flood-opacity="0" result="BackgroundImageFix"/>
      <feColorMatrix in="SourceAlpha" result="hardAlpha" values="0 0 0 0 0 0 0 0 0 0 0 0 0 0 0 0 0 0 127 0"/>
      <feOffset dx="4" dy="4"/>
      <feComposite in2="hardAlpha" operator="out"/>
      <feColorMatrix values="0 0 0 0 0.0166667 0 0 0 0 0.0166667 0 0 0 0 0.0166667 0 0 0 1 0"/>
      <feBlend in2="BackgroundImageFix" result="effect1_dropShadow_4_48"/>
      <feBlend in="SourceGraphic" in2="effect1_dropShadow_4_48" result="shape"/>
    </filter>
    <linearGradient id="b" x1="263" x2="359.51" y1="58.445" y2="219.848" gradientUnits="userSpaceOnUse">
      <stop stop-color="#2383AE"/>
      <stop offset="1" stop-color="#6DD7B9"/>
    </linearGradient>
    <linearGradient id="i" x1="106.535" x2="123.157" y1="176.64" y2="160.222" gradientUnits="userSpaceOnUse">
      <stop stop-color="#1A237E" stop-opacity=".4"/>
      <stop offset="1" stop-color="#1A237E" stop-opacity="0"/>
    </linearGradient>
    <radialGradient id="j" cx="0" cy="0" r="1" gradientTransform="matrix(175.31 0 0 177.487 48.251 53.888)" gradientUnits="userSpaceOnUse">
      <stop stop-color="#fff" stop-opacity=".1"/>
      <stop offset="1" stop-color="#fff" stop-opacity="0"/>
    </radialGradient>
    <clipPath id="f">
      <path fill="#fff" d="M0 0h113v119H0z" transform="translate(455 55)"/>
    </clipPath>
  </defs>
</svg>
